<!-- <svg width="48px" height="48px" viewBox="137 220 132 132" version="1.1" xmlns="http://www.w3.org/2000/svg" xmlns:xlink="http://www.w3.org/1999/xlink">
  <title>Gaurav Gurjar Data Consultant</title>
  <defs></defs>
  <path d="M203,352 C166.549207,352 137,322.450793 137,286 C137,249.549207 166.549207,220 203,220 C239.450793,220 269,249.549207 269,286 C269,322.450793 239.450793,352 203,352 Z M204.912,313 L204.912,261.736 L197.136,261.736 L182.448,293.632 L167.472,261.736 L159.696,261.736 L159.696,313 L167.472,313 L167.472,278.728 L179.568,303.712 L185.328,303.712 L197.136,278.728 L197.136,313 L204.912,313 Z M249.012,293.128 L249.012,285.28 L230.292,285.28 L230.292,291.904 L241.236,291.904 L241.236,294.784 C241.236,298.096 240.516,300.688 238.644,302.848 C236.628,305.152 233.676,306.448 230.292,306.448 C227.268,306.448 224.532,305.296 222.732,303.352 C220.212,300.616 219.636,297.664 219.636,287.368 C219.636,277.072 220.212,274.192 222.732,271.456 C224.532,269.512 227.268,268.288 230.292,268.288 C236.052,268.288 239.796,271.6 241.092,277.216 L248.94,277.216 C247.5,268.432 241.164,261.304 230.292,261.304 C224.82,261.304 220.356,263.248 216.828,266.776 C211.788,271.816 211.86,277.504 211.86,287.368 C211.86,297.232 211.788,302.92 216.828,307.96 C220.356,311.488 224.964,313.432 230.292,313.432 C235.692,313.432 240.516,311.704 244.404,307.6 C247.788,304 249.012,299.752 249.012,293.128 Z" id="logo" stroke="none" fill="#FFFFFF" fill-rule="evenodd"></path>
</svg>

 -->
<svg width="220" height="220" viewBox="0 0 220 220" fill="none" xmlns="http://www.w3.org/2000/svg">
<circle cx="110" cy="110" r="110" fill="black"/>
<path d="M105.918 140.512C104.746 141.918 103.32 143.285 101.641 144.613C99.9609 145.902 98.0664 147.055 95.957 148.07C93.3008 149.359 90.4102 150.355 87.2852 151.059C84.1602 151.801 80.8203 152.172 77.2656 152.172C73.9844 152.172 70.918 151.742 68.0664 150.883C65.2148 150.023 62.6367 148.812 60.332 147.25C58.0273 145.688 55.957 143.793 54.1211 141.566C52.3242 139.34 50.8203 136.859 49.6094 134.125C48.2422 131.273 47.207 128.129 46.5039 124.691C45.8008 121.254 45.4297 117.641 45.3906 113.852V102.953C45.4297 99.2812 45.7617 95.7656 46.3867 92.4062C47.0508 89.0469 48.0078 85.9414 49.2578 83.0898C50.4688 80.3945 51.9141 77.9336 53.5938 75.707C55.2734 73.4805 57.1875 71.5469 59.3359 69.9062C61.6797 68.1875 64.2578 66.8594 67.0703 65.9219C69.9219 64.9844 73.0078 64.5156 76.3281 64.5156C80.8203 64.5156 84.8047 65.1211 88.2812 66.332C91.7578 67.543 94.7266 69.2812 97.1875 71.5469C99.6875 73.8516 101.66 76.6445 103.105 79.9258C104.551 83.168 105.469 86.8203 105.859 90.8828H92.0312C91.6797 88.6562 91.1523 86.6445 90.4492 84.8477C89.7461 83.0117 88.8086 81.4688 87.6367 80.2188C86.3867 78.8906 84.8438 77.875 83.0078 77.1719C81.2109 76.4688 79.082 76.1172 76.6211 76.1172C74.8242 76.1172 73.1641 76.4297 71.6406 77.0547C70.1172 77.6406 68.75 78.4609 67.5391 79.5156C66.1328 80.7266 64.9023 82.2305 63.8477 84.0273C62.832 85.7852 61.9922 87.7578 61.3281 89.9453C60.7422 91.8594 60.3125 93.9102 60.0391 96.0977C59.7656 98.2852 59.6289 100.531 59.6289 102.836V113.852C59.6289 116.547 59.8047 119.105 60.1562 121.527C60.5469 123.949 61.1133 126.195 61.8555 128.266C62.4414 129.828 63.125 131.293 63.9062 132.66C64.7266 134.027 65.6836 135.238 66.7773 136.293C68.1445 137.66 69.7266 138.715 71.5234 139.457C73.3594 140.199 75.4297 140.59 77.7344 140.629C79.1016 140.629 80.4883 140.551 81.8945 140.395C83.3008 140.199 84.6484 139.906 85.9375 139.516C87.1875 139.125 88.3398 138.637 89.3945 138.051C90.4492 137.426 91.2891 136.703 91.9141 135.883L91.9727 118.832H76.5039V107.875H105.801L105.918 140.512ZM177.988 140.512C176.816 141.918 175.391 143.285 173.711 144.613C172.031 145.902 170.137 147.055 168.027 148.07C165.371 149.359 162.48 150.355 159.355 151.059C156.23 151.801 152.891 152.172 149.336 152.172C146.055 152.172 142.988 151.742 140.137 150.883C137.285 150.023 134.707 148.812 132.402 147.25C130.098 145.688 128.027 143.793 126.191 141.566C124.395 139.34 122.891 136.859 121.68 134.125C120.312 131.273 119.277 128.129 118.574 124.691C117.871 121.254 117.5 117.641 117.461 113.852V102.953C117.5 99.2812 117.832 95.7656 118.457 92.4062C119.121 89.0469 120.078 85.9414 121.328 83.0898C122.539 80.3945 123.984 77.9336 125.664 75.707C127.344 73.4805 129.258 71.5469 131.406 69.9062C133.75 68.1875 136.328 66.8594 139.141 65.9219C141.992 64.9844 145.078 64.5156 148.398 64.5156C152.891 64.5156 156.875 65.1211 160.352 66.332C163.828 67.543 166.797 69.2812 169.258 71.5469C171.758 73.8516 173.73 76.6445 175.176 79.9258C176.621 83.168 177.539 86.8203 177.93 90.8828H164.102C163.75 88.6562 163.223 86.6445 162.52 84.8477C161.816 83.0117 160.879 81.4688 159.707 80.2188C158.457 78.8906 156.914 77.875 155.078 77.1719C153.281 76.4688 151.152 76.1172 148.691 76.1172C146.895 76.1172 145.234 76.4297 143.711 77.0547C142.188 77.6406 140.82 78.4609 139.609 79.5156C138.203 80.7266 136.973 82.2305 135.918 84.0273C134.902 85.7852 134.062 87.7578 133.398 89.9453C132.812 91.8594 132.383 93.9102 132.109 96.0977C131.836 98.2852 131.699 100.531 131.699 102.836V113.852C131.699 116.547 131.875 119.105 132.227 121.527C132.617 123.949 133.184 126.195 133.926 128.266C134.512 129.828 135.195 131.293 135.977 132.66C136.797 134.027 137.754 135.238 138.848 136.293C140.215 137.66 141.797 138.715 143.594 139.457C145.43 140.199 147.5 140.59 149.805 140.629C151.172 140.629 152.559 140.551 153.965 140.395C155.371 140.199 156.719 139.906 158.008 139.516C159.258 139.125 160.41 138.637 161.465 138.051C162.52 137.426 163.359 136.703 163.984 135.883L164.043 118.832H148.574V107.875H177.871L177.988 140.512Z" id="logo" fill="#171717"/>
</svg>

